<?xml version="1.0" encoding="UTF-8"?>
<!DOCTYPE svg PUBLIC "-//W3C//DTD SVG 1.1//EN" "http://www.w3.org/Graphics/SVG/1.1/DTD/svg11.dtd">
<svg xmlns="http://www.w3.org/2000/svg" version="1.1" width="512px" height="566px" style="shape-rendering:geometricPrecision; text-rendering:geometricPrecision; image-rendering:optimizeQuality; fill-rule:evenodd; clip-rule:evenodd" xmlns:xlink="http://www.w3.org/1999/xlink">
<g><path style="opacity:0.981" fill="#e7e7e7" d="M 222.5,61.5 C 299.274,56.4924 363.108,82.4924 414,139.5C 462.856,201.108 477.19,270.108 457,346.5C 432.5,421.667 382.667,471.5 307.5,496C 262.253,508.037 217.253,507.204 172.5,493.5C 141.306,505.509 110.306,518.009 79.5,531C 70.629,534.476 64.129,531.976 60,523.5C 59.6667,484.5 59.3333,445.5 59,406.5C 22.2571,348.367 12.9238,286.034 31,219.5C 55.5,144.333 105.333,94.5 180.5,70C 194.446,66.1806 208.446,63.3473 222.5,61.5 Z"/></g>
<g><path style="opacity:1" fill="#111827" d="M 233.5,91.5 C 311.494,90.5682 370.994,122.902 412,188.5C 445.593,251.976 445.927,315.642 413,379.5C 371.276,447.789 310.11,480.622 229.5,478C 154.25,469.481 100.083,431.315 67,363.5C 42.6443,303.742 45.6443,245.408 76,188.5C 112.04,129.66 164.54,97.3271 233.5,91.5 Z"/></g>
<g><path style="opacity:1" fill="#e6e6e6" d="M 124.5,246.5 C 144.237,244.611 157.404,252.945 164,271.5C 166.493,292.364 157.66,305.53 137.5,311C 119.604,312.802 107.437,305.302 101,288.5C 97.1179,267.93 104.951,253.93 124.5,246.5 Z"/></g>
<g><path style="opacity:1" fill="#e6e6e6" d="M 236.5,246.5 C 256.237,244.611 269.404,252.945 276,271.5C 278.493,292.364 269.66,305.53 249.5,311C 231.604,312.802 219.437,305.302 213,288.5C 209.118,267.93 216.951,253.93 236.5,246.5 Z"/></g>
<g><path style="opacity:1" fill="#e6e6e6" d="M 348.5,246.5 C 368.237,244.611 381.404,252.945 388,271.5C 390.493,292.364 381.66,305.53 361.5,311C 343.604,312.802 331.437,305.302 325,288.5C 321.118,267.93 328.951,253.93 348.5,246.5 Z"/></g>
<g><path style="opacity:1" fill="#121928" d="M 86.5,439.5 C 91.1644,443.996 95.9977,448.33 101,452.5C 101.5,459.492 101.666,466.492 101.5,473.5C 107.596,471.374 113.762,469.374 120,467.5C 127.015,470.926 133.848,474.76 140.5,479C 122.727,485.702 104.893,492.202 87,498.5C 86.5,478.836 86.3334,459.169 86.5,439.5 Z"/></g>
</svg>
