<?xml version="1.0" encoding="UTF-8"?>
<!DOCTYPE svg PUBLIC "-//W3C//DTD SVG 1.1//EN" "http://www.w3.org/Graphics/SVG/1.1/DTD/svg11.dtd">
<svg xmlns="http://www.w3.org/2000/svg" version="1.1" width="45px" height="60px" style="shape-rendering:geometricPrecision; text-rendering:geometricPrecision; image-rendering:optimizeQuality; fill-rule:evenodd; clip-rule:evenodd" xmlns:xlink="http://www.w3.org/1999/xlink">
<g><path style="opacity:0.8" fill="#bb0000" d="M 16.5,-0.5 C 20.5,-0.5 24.5,-0.5 28.5,-0.5C 28.67,0.822066 28.3366,1.98873 27.5,3C 33.1569,3.49942 38.8236,3.66609 44.5,3.5C 44.5,5.83333 44.5,8.16667 44.5,10.5C 29.5,10.5 14.5,10.5 -0.5,10.5C -0.5,8.16667 -0.5,5.83333 -0.5,3.5C 5.16667,3.5 10.8333,3.5 16.5,3.5C 16.5,2.16667 16.5,0.833333 16.5,-0.5 Z"/></g>
<g><path style="opacity:0.889" fill="#bb0000" d="M 41.5,59.5 C 28.8333,59.5 16.1667,59.5 3.5,59.5C 2.51621,43.911 2.18288,28.2444 2.5,12.5C 15.5,12.5 28.5,12.5 41.5,12.5C 41.5,28.1667 41.5,43.8333 41.5,59.5 Z"/></g>
</svg>
