<?xml version="1.0" encoding="UTF-8"?>
<!DOCTYPE svg PUBLIC "-//W3C//DTD SVG 1.1//EN" "http://www.w3.org/Graphics/SVG/1.1/DTD/svg11.dtd">
<svg xmlns="http://www.w3.org/2000/svg" version="1.1" width="512px" height="566px" style="shape-rendering:geometricPrecision; text-rendering:geometricPrecision; image-rendering:optimizeQuality; fill-rule:evenodd; clip-rule:evenodd" xmlns:xlink="http://www.w3.org/1999/xlink">
<g><path style="opacity:0.98" fill="#e7e7e7" d="M 242.5,57.5 C 260.17,57.3334 277.836,57.5001 295.5,58C 301.325,58.6643 306.492,60.8309 311,64.5C 317.166,61.663 323.666,59.8296 330.5,59C 354.5,58.3333 378.5,58.3333 402.5,59C 426.109,61.109 438.776,73.9424 440.5,97.5C 440.1,104.504 438.433,111.171 435.5,117.5C 454.859,124.018 465.526,137.518 467.5,158C 466.718,169.562 462.384,179.562 454.5,188C 470.56,197.93 478.894,212.43 479.5,231.5C 478.988,247.568 472.655,260.735 460.5,271C 472.448,280.984 478.782,293.818 479.5,309.5C 480.933,331.685 473.266,350.185 456.5,365C 446.047,372.374 434.38,376.374 421.5,377C 372.83,377.167 324.163,377.667 275.5,378.5C 286.623,407.145 287.457,436.145 278,465.5C 273.738,483.656 266.405,500.322 256,515.5C 239.204,532.322 219.371,537.822 196.5,532C 181.155,524.83 173.821,512.664 174.5,495.5C 175.879,483.105 177.712,470.772 180,458.5C 181.222,445.184 181.555,431.85 181,418.5C 179.057,412.672 176.724,407.005 174,401.5C 166.16,389.151 157.826,377.151 149,365.5C 145.806,360.446 143.139,355.112 141,349.5C 133.252,363.136 121.418,370.302 105.5,371C 93.8333,371.667 82.1667,371.667 70.5,371C 45.6667,368.833 32.1667,355.333 30,330.5C 29.3333,255.5 29.3333,180.5 30,105.5C 31.8792,84.2985 43.0459,71.1318 63.5,66C 77.463,64.4678 91.463,64.1344 105.5,65C 126.258,66.7691 139.425,77.6025 145,97.5C 160.958,78.0951 181.458,66.2617 206.5,62C 218.528,59.5088 230.528,58.0088 242.5,57.5 Z"/></g>
<g><path style="opacity:1" fill="#ac1f2e" d="M 225.5,78.5 C 249.169,78.3334 272.836,78.5 296.5,79C 288.927,87.8308 286.427,97.9974 289,109.5C 289.803,112.244 290.803,114.911 292,117.5C 295.051,121.774 298.217,125.941 301.5,130C 285.967,147.356 284.467,165.856 297,185.5C 299.613,187.401 301.28,189.735 302,192.5C 299.286,195.551 296.286,198.218 293,200.5C 286.048,194.894 278.548,190.06 270.5,186C 250.787,177.791 232.787,180.458 216.5,194C 274.089,201.976 298.589,234.81 290,292.5C 279.825,308.939 281.658,323.773 295.5,337C 307.5,337.667 319.5,337.667 331.5,337C 315.315,331.14 308.482,319.64 311,302.5C 314.5,292.333 321.333,285.5 331.5,282C 366.5,281.333 401.5,281.333 436.5,282C 447.238,285.071 454.404,291.904 458,302.5C 461.817,321.442 456.65,337.275 442.5,350C 437.828,352.837 432.828,354.837 427.5,356C 365.501,356.5 303.501,356.667 241.5,356.5C 241.814,359.947 242.648,363.28 244,366.5C 249.252,374.668 254.252,383.001 259,391.5C 265.65,410.934 266.317,430.6 261,450.5C 258.137,462.422 254.47,474.089 250,485.5C 241.502,508.661 225.336,517.495 201.5,512C 196.216,506.981 194.216,500.814 195.5,493.5C 198.182,475.561 200.348,457.561 202,439.5C 203.948,423.189 200.948,407.856 193,393.5C 184.058,379.559 174.724,365.892 165,352.5C 162.781,348.729 161.115,344.729 160,340.5C 152.801,266.628 151.468,192.628 156,118.5C 166.161,101.148 180.995,89.6478 200.5,84C 208.877,81.7221 217.21,79.8888 225.5,78.5 Z"/></g>
<g><path style="opacity:1" fill="#ac202e" d="M 325.5,79.5 C 352.502,79.3334 379.502,79.5 406.5,80C 417.263,83.6861 421.763,91.1861 420,102.5C 417.737,109.097 413.237,113.264 406.5,115C 379.5,115.667 352.5,115.667 325.5,115C 312.479,108.79 309.312,99.2895 316,86.5C 318.79,83.535 321.957,81.2016 325.5,79.5 Z"/></g>
<g><path style="opacity:1" fill="#ac1f2e" d="M 65.5,85.5 C 80.1705,85.3334 94.8371,85.5001 109.5,86C 117.565,87.7315 122.732,92.5648 125,100.5C 125.667,178.5 125.667,256.5 125,334.5C 123.167,343 118,348.167 109.5,350C 94.8333,350.667 80.1667,350.667 65.5,350C 57.5648,347.732 52.7315,342.565 51,334.5C 50.3333,256.5 50.3333,178.5 51,100.5C 53.3509,92.9841 58.1842,87.9841 65.5,85.5 Z"/></g>
<g><path style="opacity:1" fill="#ac1f2e" d="M 326.5,136.5 C 360.502,136.333 394.502,136.5 428.5,137C 446.328,143.138 450.828,154.638 442,171.5C 438.312,175.428 433.812,177.928 428.5,179C 394.5,179.667 360.5,179.667 326.5,179C 313.275,173.383 308.442,163.549 312,149.5C 315.162,143.164 319.996,138.831 326.5,136.5 Z"/></g>
<g><path style="opacity:1" fill="#ac1f2e" d="M 331.5,202.5 C 366.502,202.333 401.502,202.5 436.5,203C 455.007,209.51 461.84,222.343 457,241.5C 453.336,251.163 446.503,257.33 436.5,260C 401.5,260.667 366.5,260.667 331.5,260C 314.701,253.579 307.868,241.412 311,223.5C 314.685,213.316 321.519,206.316 331.5,202.5 Z"/></g>
<g><path style="opacity:1" fill="#fe949d" d="M 84.5,289.5 C 98.5417,288.377 105.042,294.71 104,308.5C 99.6857,318.073 92.5191,321.24 82.5,318C 73.8192,311.538 72.3192,303.705 78,294.5C 80.3256,292.934 82.4922,291.268 84.5,289.5 Z"/></g>
</svg>
