<?xml version="1.0" encoding="UTF-8"?>
<!DOCTYPE svg PUBLIC "-//W3C//DTD SVG 1.1//EN" "http://www.w3.org/Graphics/SVG/1.1/DTD/svg11.dtd">
<svg xmlns="http://www.w3.org/2000/svg" version="1.1" width="512px" height="566px" style="shape-rendering:geometricPrecision; text-rendering:geometricPrecision; image-rendering:optimizeQuality; fill-rule:evenodd; clip-rule:evenodd" xmlns:xlink="http://www.w3.org/1999/xlink">
<g><path style="opacity:0.98" fill="#e7e7e7" d="M 242.5,57.5 C 260.17,57.3334 277.836,57.5001 295.5,58C 301.325,58.6643 306.492,60.8309 311,64.5C 317.166,61.663 323.666,59.8296 330.5,59C 354.5,58.3333 378.5,58.3333 402.5,59C 426.109,61.109 438.776,73.9424 440.5,97.5C 440.1,104.504 438.433,111.171 435.5,117.5C 454.859,124.018 465.526,137.518 467.5,158C 466.718,169.562 462.384,179.562 454.5,188C 470.56,197.93 478.894,212.43 479.5,231.5C 478.988,247.568 472.655,260.735 460.5,271C 472.448,280.984 478.782,293.818 479.5,309.5C 480.933,331.685 473.266,350.185 456.5,365C 446.047,372.374 434.38,376.374 421.5,377C 372.83,377.167 324.163,377.667 275.5,378.5C 286.623,407.145 287.457,436.145 278,465.5C 273.738,483.656 266.405,500.322 256,515.5C 239.204,532.322 219.371,537.822 196.5,532C 181.155,524.83 173.821,512.664 174.5,495.5C 175.879,483.105 177.712,470.772 180,458.5C 181.222,445.184 181.555,431.85 181,418.5C 179.057,412.672 176.724,407.005 174,401.5C 166.16,389.151 157.826,377.151 149,365.5C 145.806,360.446 143.139,355.112 141,349.5C 133.252,363.136 121.418,370.302 105.5,371C 93.8333,371.667 82.1667,371.667 70.5,371C 45.6667,368.833 32.1667,355.333 30,330.5C 29.3333,255.5 29.3333,180.5 30,105.5C 31.8792,84.2985 43.0459,71.1318 63.5,66C 77.463,64.4678 91.463,64.1344 105.5,65C 126.258,66.7691 139.425,77.6025 145,97.5C 160.958,78.0951 181.458,66.2617 206.5,62C 218.528,59.5088 230.528,58.0088 242.5,57.5 Z"/></g>
<g><path style="opacity:1" fill="#111827" d="M 233.5,78.5 C 254.503,78.3334 275.503,78.5 296.5,79C 287.037,90.018 285.204,102.185 291,115.5C 293.893,120.793 297.393,125.626 301.5,130C 297.382,135.06 293.882,140.56 291,146.5C 285.482,162.935 288.815,177.269 301,189.5C 301.667,190.5 301.667,191.5 301,192.5C 298.318,195.35 295.484,198.016 292.5,200.5C 282.789,191.476 271.456,185.309 258.5,182C 242.48,179.17 228.48,183.17 216.5,194C 273.152,201.655 297.652,233.821 290,290.5C 288.285,296.264 286.285,301.93 284,307.5C 282.636,318.908 286.136,328.574 294.5,336.5C 306.82,337.666 319.153,337.833 331.5,337C 315.519,331.004 308.686,319.504 311,302.5C 314.5,292.333 321.333,285.5 331.5,282C 367.539,281.033 403.539,281.366 439.5,283C 452.747,288.587 459.08,298.587 458.5,313C 459.87,334.288 450.536,348.288 430.5,355C 367.532,356.478 304.532,356.978 241.5,356.5C 241.814,359.947 242.648,363.28 244,366.5C 249.252,374.668 254.252,383.001 259,391.5C 263.371,403.47 265.038,415.804 264,428.5C 261.769,450.759 256.102,472.093 247,492.5C 236.887,510.869 221.72,517.369 201.5,512C 196.216,506.981 194.216,500.814 195.5,493.5C 196.114,483.703 197.614,474.036 200,464.5C 200.935,449.159 201.602,433.826 202,418.5C 200.19,409.736 197.19,401.403 193,393.5C 182.667,377.833 172.333,362.167 162,346.5C 160.384,342.653 159.384,338.653 159,334.5C 152.951,262.578 151.951,190.578 156,118.5C 161.783,107.717 169.949,99.217 180.5,93C 197.143,83.9255 214.81,79.0921 233.5,78.5 Z"/></g>
<g><path style="opacity:1" fill="#111827" d="M 325.5,79.5 C 352.502,79.3334 379.502,79.5 406.5,80C 420.232,85.6437 423.732,95.1437 417,108.5C 414.222,111.807 410.722,113.974 406.5,115C 379.5,115.667 352.5,115.667 325.5,115C 312.74,108.719 309.573,99.2191 316,86.5C 318.79,83.535 321.957,81.2016 325.5,79.5 Z"/></g>
<g><path style="opacity:1" fill="#111827" d="M 65.5,85.5 C 80.1705,85.3334 94.8371,85.5001 109.5,86C 117.565,87.7315 122.732,92.5648 125,100.5C 125.667,178.5 125.667,256.5 125,334.5C 123.167,343 118,348.167 109.5,350C 94.8333,350.667 80.1667,350.667 65.5,350C 57.5648,347.732 52.7315,342.565 51,334.5C 50.3333,256.5 50.3333,178.5 51,100.5C 53.3509,92.9841 58.1842,87.9841 65.5,85.5 Z"/></g>
<g><path style="opacity:1" fill="#111827" d="M 326.5,136.5 C 360.835,136.333 395.168,136.5 429.5,137C 446.519,143.717 450.686,155.217 442,171.5C 438.547,175.145 434.38,177.645 429.5,179C 395.167,179.667 360.833,179.667 326.5,179C 316.205,175.595 310.872,168.429 310.5,157.5C 311.338,147.004 316.672,140.004 326.5,136.5 Z"/></g>
<g><path style="opacity:1" fill="#111827" d="M 331.5,202.5 C 367.54,202.033 403.54,202.533 439.5,204C 455.951,211.407 461.784,223.907 457,241.5C 453.103,252.065 445.603,258.231 434.5,260C 400.167,260.667 365.833,260.667 331.5,260C 314.701,253.579 307.868,241.412 311,223.5C 314.685,213.316 321.519,206.316 331.5,202.5 Z"/></g>
<g><path style="opacity:1" fill="#8d8d97" d="M 84.5,289.5 C 99.9134,288.732 106.08,295.732 103,310.5C 99.1453,318.026 92.9786,320.86 84.5,319C 74.3615,312.921 72.1949,304.755 78,294.5C 80.3256,292.934 82.4922,291.268 84.5,289.5 Z"/></g>
</svg>
