<?xml version="1.0" encoding="UTF-8"?>
<!DOCTYPE svg PUBLIC "-//W3C//DTD SVG 1.1//EN" "http://www.w3.org/Graphics/SVG/1.1/DTD/svg11.dtd">
<svg xmlns="http://www.w3.org/2000/svg" version="1.1" width="512px" height="566px" style="shape-rendering:geometricPrecision; text-rendering:geometricPrecision; image-rendering:optimizeQuality; fill-rule:evenodd; clip-rule:evenodd" xmlns:xlink="http://www.w3.org/1999/xlink">
<g><path style="opacity:0.955" fill="#fefffe" d="M 294.5,6.5 C 302.656,4.989 308.156,7.989 311,15.5C 311.231,19.5841 311.898,23.5841 313,27.5C 318.105,28.6498 322.938,30.4832 327.5,33C 331.5,39 331.5,45 327.5,51C 322.816,53.5915 317.816,55.4248 312.5,56.5C 309.413,68.8766 302.08,72.3766 290.5,67C 288.43,63.6923 286.763,60.1923 285.5,56.5C 280.184,55.4248 275.184,53.5915 270.5,51C 266.5,45 266.5,39 270.5,33C 275.062,30.4832 279.895,28.6498 285,27.5C 285.588,21.1743 287.254,15.1743 290,9.5C 291.652,8.60064 293.152,7.60064 294.5,6.5 Z"/></g>
<g><path style="opacity:0.98" fill="#e7e7e7" d="M 212.5,27.5 C 239.218,29.4415 257.718,42.7748 268,67.5C 279.638,94.6875 284.971,123.021 284,152.5C 282.414,163.513 279.58,174.18 275.5,184.5C 326.855,185.037 378.188,185.87 429.5,187C 459.988,193.824 476.654,212.824 479.5,244C 479.757,255.478 477.591,266.645 473,277.5C 469.581,282.923 465.415,287.756 460.5,292C 479.508,310.545 483.674,332.045 473,356.5C 468.167,364 462,370.167 454.5,375C 470.096,393.664 470.93,412.831 457,432.5C 450.968,438.696 443.802,443.029 435.5,445.5C 444.097,463.917 441.431,480.417 427.5,495C 420.162,500.59 411.829,503.59 402.5,504C 378.5,504.667 354.5,504.667 330.5,504C 323.602,503.424 317.102,501.59 311,498.5C 306.492,502.169 301.325,504.336 295.5,505C 269.117,506.005 242.784,505.339 216.5,503C 194.102,500.126 174.102,491.793 156.5,478C 152.298,474.133 148.465,469.967 145,465.5C 139.425,485.398 126.258,496.231 105.5,498C 93.8333,498.667 82.1667,498.667 70.5,498C 45.6667,495.833 32.1667,482.333 30,457.5C 29.3333,382.5 29.3333,307.5 30,232.5C 32.1667,207.667 45.6667,194.167 70.5,192C 82.1667,191.333 93.8333,191.333 105.5,192C 121.418,192.698 133.252,199.864 141,213.5C 143.139,207.888 145.806,202.554 149,197.5C 157.826,185.849 166.16,173.849 174,161.5C 176.724,155.995 179.057,150.328 181,144.5C 181.555,131.15 181.222,117.816 180,104.5C 177.712,92.2281 175.879,79.8948 174.5,67.5C 175.283,42.7202 187.949,29.3868 212.5,27.5 Z"/></g>
<g><path style="opacity:1" fill="#3c4fa7" d="M 206.5,48.5 C 226.912,47.1164 241.079,55.783 249,74.5C 258.017,95.0671 263.183,116.567 264.5,139C 264.259,153.206 261.093,166.706 255,179.5C 250.605,185.566 246.605,191.9 243,198.5C 241.921,201.063 241.421,203.729 241.5,206.5C 302.501,206.333 363.501,206.5 424.5,207C 441.881,209.711 453.047,219.544 458,236.5C 459.073,246.311 458.406,255.978 456,265.5C 451.742,274.094 444.908,279.261 435.5,281C 400.833,281.667 366.167,281.667 331.5,281C 315.526,275.009 308.693,263.509 311,246.5C 314.5,236.333 321.333,229.5 331.5,226C 319.167,225.333 306.833,225.333 294.5,226C 289.775,231.067 286.275,236.901 284,243.5C 283.333,247.167 283.333,250.833 284,254.5C 294.219,279.931 293.886,305.264 283,330.5C 272.258,347.643 257.091,359.143 237.5,365C 230.484,366.24 223.484,367.574 216.5,369C 236.117,384.202 256.783,385.536 278.5,373C 283.308,369.692 287.975,366.192 292.5,362.5C 295.484,364.984 298.318,367.65 301,370.5C 301.667,371.5 301.667,372.5 301,373.5C 287.909,386.388 284.909,401.388 292,418.5C 294.789,423.614 297.955,428.447 301.5,433C 297.964,436.872 294.797,441.038 292,445.5C 285.468,459.225 286.968,472.058 296.5,484C 270.482,484.841 244.482,484.508 218.5,483C 196.814,480.073 178.314,470.907 163,455.5C 160.417,452.003 158.084,448.336 156,444.5C 154.656,407.844 153.823,371.178 153.5,334.5C 152.848,295.601 155.348,256.934 161,218.5C 169.549,203.956 178.882,189.956 189,176.5C 197.121,163.47 201.621,149.304 202.5,134C 201.809,114.318 199.642,94.8182 196,75.5C 195.333,69.8333 195.333,64.1667 196,58.5C 198.106,53.5573 201.606,50.224 206.5,48.5 Z"/></g>
<g><path style="opacity:0.938" fill="#fefffe" d="M 112.5,107.5 C 115.518,107.335 118.518,107.502 121.5,108C 122.333,108.833 123.167,109.667 124,110.5C 125.435,115.041 126.268,119.708 126.5,124.5C 130.947,124.986 135.114,126.32 139,128.5C 140.483,131.702 140.817,135.036 140,138.5C 139.5,140.333 138.333,141.5 136.5,142C 133.226,143.202 129.893,144.202 126.5,145C 124.704,155.889 119.204,158.389 110,152.5C 109.04,150.02 108.207,147.52 107.5,145C 102.743,144.188 98.2428,142.688 94,140.5C 92,136.5 92,132.5 94,128.5C 98.1878,126.438 102.521,124.771 107,123.5C 107.945,119.886 108.612,116.219 109,112.5C 109.997,110.677 111.164,109.01 112.5,107.5 Z"/></g>
<g><path style="opacity:0.95" fill="#fefffe" d="M 352.5,112.5 C 363.516,111.854 368.516,117.188 367.5,128.5C 377.937,128.427 382.437,133.427 381,143.5C 377.479,148.343 372.646,150.676 366.5,150.5C 365.507,158.985 360.84,162.152 352.5,160C 349.108,157.715 347.441,154.548 347.5,150.5C 337.063,150.573 332.563,145.573 334,135.5C 336.752,131.534 340.585,129.201 345.5,128.5C 346.865,125.313 347.699,121.98 348,118.5C 349.332,116.34 350.832,114.34 352.5,112.5 Z"/></g>
<g><path style="opacity:1" fill="#3c4fa7" d="M 65.5,212.5 C 80.1705,212.333 94.8371,212.5 109.5,213C 117.565,214.732 122.732,219.565 125,227.5C 125.667,305.5 125.667,383.5 125,461.5C 123.268,469.565 118.435,474.732 110.5,477C 95.5,477.667 80.5,477.667 65.5,477C 57.5648,474.732 52.7315,469.565 51,461.5C 50.3333,383.5 50.3333,305.5 51,227.5C 53.3509,219.984 58.1842,214.984 65.5,212.5 Z"/></g>
<g><path style="opacity:1" fill="#3c4fa7" d="M 331.5,302.5 C 367.549,302.026 403.549,302.526 439.5,304C 455.951,311.407 461.784,323.907 457,341.5C 453.224,351.609 446.057,357.776 435.5,360C 400.833,360.667 366.167,360.667 331.5,360C 314.704,353.587 307.871,341.42 311,323.5C 314.685,313.316 321.519,306.316 331.5,302.5 Z"/></g>
<g><path style="opacity:1" fill="#3c4fa7" d="M 326.5,383.5 C 360.835,383.333 395.168,383.5 429.5,384C 446.519,390.717 450.686,402.217 442,418.5C 438.547,422.145 434.38,424.645 429.5,426C 395.167,426.667 360.833,426.667 326.5,426C 316.205,422.595 310.872,415.429 310.5,404.5C 311.338,394.004 316.672,387.004 326.5,383.5 Z"/></g>
<g><path style="opacity:1" fill="#524f99" d="M 84.5,413.5 C 101.765,413.257 107.598,421.257 102,437.5C 95.7488,444.011 88.5821,445.177 80.5,441C 73.9893,434.749 72.8227,427.582 77,419.5C 79.1141,416.879 81.6141,414.879 84.5,413.5 Z"/></g>
<g><path style="opacity:1" fill="#3c4fa7" d="M 325.5,447.5 C 352.502,447.333 379.502,447.5 406.5,448C 420.232,453.644 423.732,463.144 417,476.5C 414.222,479.807 410.722,481.974 406.5,483C 379.5,483.667 352.5,483.667 325.5,483C 312.74,476.719 309.573,467.219 316,454.5C 318.79,451.535 321.957,449.202 325.5,447.5 Z"/></g>
</svg>
