<?xml version="1.0" encoding="UTF-8"?>
<!DOCTYPE svg PUBLIC "-//W3C//DTD SVG 1.1//EN" "http://www.w3.org/Graphics/SVG/1.1/DTD/svg11.dtd">
<svg xmlns="http://www.w3.org/2000/svg" version="1.1" width="512px" height="566px" style="shape-rendering:geometricPrecision; text-rendering:geometricPrecision; image-rendering:optimizeQuality; fill-rule:evenodd; clip-rule:evenodd" xmlns:xlink="http://www.w3.org/1999/xlink">
<g><path style="opacity:0.98" fill="#e7e7e7" d="M 212.5,27.5 C 239.218,29.4415 257.718,42.7748 268,67.5C 279.638,94.6875 284.971,123.021 284,152.5C 282.414,163.513 279.58,174.18 275.5,184.5C 326.855,185.037 378.188,185.87 429.5,187C 459.988,193.824 476.654,212.824 479.5,244C 479.757,255.478 477.591,266.645 473,277.5C 469.581,282.923 465.415,287.756 460.5,292C 479.508,310.545 483.674,332.045 473,356.5C 468.167,364 462,370.167 454.5,375C 470.096,393.664 470.93,412.831 457,432.5C 450.968,438.696 443.802,443.029 435.5,445.5C 444.097,463.917 441.431,480.417 427.5,495C 420.162,500.59 411.829,503.59 402.5,504C 378.5,504.667 354.5,504.667 330.5,504C 323.602,503.424 317.102,501.59 311,498.5C 306.492,502.169 301.325,504.336 295.5,505C 269.117,506.005 242.784,505.339 216.5,503C 194.102,500.126 174.102,491.793 156.5,478C 152.298,474.133 148.465,469.967 145,465.5C 139.425,485.398 126.258,496.231 105.5,498C 93.8333,498.667 82.1667,498.667 70.5,498C 45.6667,495.833 32.1667,482.333 30,457.5C 29.3333,382.5 29.3333,307.5 30,232.5C 32.1667,207.667 45.6667,194.167 70.5,192C 82.1667,191.333 93.8333,191.333 105.5,192C 121.418,192.698 133.252,199.864 141,213.5C 143.139,207.888 145.806,202.554 149,197.5C 157.826,185.849 166.16,173.849 174,161.5C 176.724,155.995 179.057,150.328 181,144.5C 181.555,131.15 181.222,117.816 180,104.5C 177.712,92.2281 175.879,79.8948 174.5,67.5C 175.283,42.7202 187.949,29.3868 212.5,27.5 Z"/></g>
<g><path style="opacity:1" fill="#111827" d="M 206.5,48.5 C 226.912,47.1164 241.079,55.783 249,74.5C 257.856,94.7565 263.022,115.923 264.5,138C 264.381,152.56 261.214,166.393 255,179.5C 250.605,185.566 246.605,191.9 243,198.5C 241.921,201.063 241.421,203.729 241.5,206.5C 302.501,206.333 363.501,206.5 424.5,207C 441.881,209.711 453.047,219.544 458,236.5C 459.073,246.311 458.406,255.978 456,265.5C 451.556,274.47 444.389,279.636 434.5,281C 400.167,281.667 365.833,281.667 331.5,281C 315.519,275.004 308.686,263.504 311,246.5C 314.5,236.333 321.333,229.5 331.5,226C 319.167,225.333 306.833,225.333 294.5,226C 289.775,231.067 286.275,236.901 284,243.5C 283.333,247.167 283.333,250.833 284,254.5C 294.219,279.931 293.886,305.264 283,330.5C 272.946,347.295 258.446,358.461 239.5,364C 231.887,365.923 224.221,367.589 216.5,369C 236.117,384.202 256.783,385.536 278.5,373C 283.308,369.692 287.975,366.192 292.5,362.5C 295.484,364.984 298.318,367.65 301,370.5C 301.667,371.5 301.667,372.5 301,373.5C 287.909,386.388 284.909,401.388 292,418.5C 294.789,423.614 297.955,428.447 301.5,433C 297.964,436.872 294.797,441.038 292,445.5C 285.468,459.225 286.968,472.058 296.5,484C 270.482,484.841 244.482,484.508 218.5,483C 196.814,480.073 178.314,470.907 163,455.5C 160.417,452.003 158.084,448.336 156,444.5C 153.379,387.839 153.045,331.172 155,274.5C 155.947,255.697 157.947,237.03 161,218.5C 169.549,203.956 178.882,189.956 189,176.5C 197.535,162.895 202.035,148.062 202.5,132C 201.742,113.006 199.575,94.1727 196,75.5C 195.333,69.8333 195.333,64.1667 196,58.5C 198.106,53.5573 201.606,50.224 206.5,48.5 Z"/></g>
<g><path style="opacity:1" fill="#111827" d="M 65.5,212.5 C 80.1705,212.333 94.8371,212.5 109.5,213C 117.565,214.732 122.732,219.565 125,227.5C 125.667,305.5 125.667,383.5 125,461.5C 123.167,470 118,475.167 109.5,477C 94.8333,477.667 80.1667,477.667 65.5,477C 57.5648,474.732 52.7315,469.565 51,461.5C 50.3333,383.5 50.3333,305.5 51,227.5C 53.3509,219.984 58.1842,214.984 65.5,212.5 Z"/></g>
<g><path style="opacity:1" fill="#111827" d="M 331.5,302.5 C 367.54,302.033 403.54,302.533 439.5,304C 455.951,311.407 461.784,323.907 457,341.5C 453.103,352.065 445.603,358.231 434.5,360C 400.167,360.667 365.833,360.667 331.5,360C 314.701,353.579 307.868,341.412 311,323.5C 314.685,313.316 321.519,306.316 331.5,302.5 Z"/></g>
<g><path style="opacity:1" fill="#111827" d="M 326.5,383.5 C 360.835,383.333 395.168,383.5 429.5,384C 446.519,390.717 450.686,402.217 442,418.5C 438.547,422.145 434.38,424.645 429.5,426C 395.167,426.667 360.833,426.667 326.5,426C 316.205,422.595 310.872,415.429 310.5,404.5C 311.338,394.004 316.672,387.004 326.5,383.5 Z"/></g>
<g><path style="opacity:1" fill="#e3e3e4" d="M 84.5,413.5 C 100.333,412.868 106.5,420.202 103,435.5C 96.5451,444.037 88.7118,445.537 79.5,440C 71.5274,429.25 73.1941,420.416 84.5,413.5 Z"/></g>
<g><path style="opacity:1" fill="#111827" d="M 325.5,447.5 C 352.502,447.333 379.502,447.5 406.5,448C 420.232,453.644 423.732,463.144 417,476.5C 414.222,479.807 410.722,481.974 406.5,483C 379.5,483.667 352.5,483.667 325.5,483C 312.74,476.719 309.573,467.219 316,454.5C 318.79,451.535 321.957,449.202 325.5,447.5 Z"/></g>
</svg>
