<?xml version="1.0" encoding="UTF-8"?>
<!DOCTYPE svg PUBLIC "-//W3C//DTD SVG 1.1//EN" "http://www.w3.org/Graphics/SVG/1.1/DTD/svg11.dtd">
<svg xmlns="http://www.w3.org/2000/svg" version="1.1" width="512px" height="566px" style="shape-rendering:geometricPrecision; text-rendering:geometricPrecision; image-rendering:optimizeQuality; fill-rule:evenodd; clip-rule:evenodd" xmlns:xlink="http://www.w3.org/1999/xlink">
<g><path style="opacity:0.977" fill="#e7e7e7" d="M 232.5,158.5 C 292.882,155.021 347.548,170.854 396.5,206C 427.218,228.383 454.385,254.55 478,284.5C 478.805,288.909 477.805,292.909 475,296.5C 470.867,301.634 466.367,306.468 461.5,311C 444.233,325.597 427.566,340.93 411.5,357C 380.8,381.959 346.467,400.626 308.5,413C 265.975,424.397 223.975,422.73 182.5,408C 154.165,396.672 127.832,382.005 103.5,364C 85.1667,348.333 66.8333,332.667 48.5,317C 40.8589,309.698 34.3589,301.531 29,292.5C 28.3333,290.167 28.3333,287.833 29,285.5C 63.5427,238.665 107.043,202.832 159.5,178C 183.051,168.086 207.384,161.586 232.5,158.5 Z"/></g>
<g><path style="opacity:1" fill="#121928" d="M 236.5,188.5 C 281.12,186.572 322.787,196.738 361.5,219C 392.396,237.876 420.396,260.543 445.5,287C 421.39,310.116 396.39,332.116 370.5,353C 318.731,389.061 262.065,399.728 200.5,385C 171.824,377.164 146.157,363.831 123.5,345C 103.833,326.667 84.1667,308.333 64.5,290C 84.0398,268.449 105.373,249.116 128.5,232C 160.998,208.562 196.998,194.062 236.5,188.5 Z"/></g>
<g><path style="opacity:1" fill="#e3e3e3" d="M 299.5,207.5 C 306.132,207.816 311.799,210.316 316.5,215C 355.903,251.584 363.07,293.751 338,341.5C 330.208,352.959 320.708,362.792 309.5,371C 301.145,374.894 297.645,372.394 299,363.5C 334.621,337.305 346.287,302.972 334,260.5C 330.343,251.844 325.676,243.844 320,236.5C 312.932,228.762 305.266,221.762 297,215.5C 296.023,212.183 296.856,209.516 299.5,207.5 Z"/></g>
<g><path style="opacity:1" fill="#e2e3e3" d="M 197.5,208.5 C 204.493,206.996 207.327,209.663 206,216.5C 199.226,222.584 192.559,228.918 186,235.5C 159.023,271.558 158.689,307.891 185,344.5C 192.068,352.238 199.734,359.238 208,365.5C 208.746,372.571 205.579,375.071 198.5,373C 161.543,347.235 147.043,312.068 155,267.5C 161.84,242.461 176.007,222.795 197.5,208.5 Z"/></g>
<g><path style="opacity:1" fill="#e5e5e5" d="M 243.5,216.5 C 280.765,213.994 307.598,229.327 324,262.5C 335.042,293.963 329.208,321.796 306.5,346C 282.521,366.831 255.521,371.831 225.5,361C 190.238,343.314 175.405,314.814 181,275.5C 190.03,243.25 210.863,223.583 243.5,216.5 Z"/></g>
<g><path style="opacity:1" fill="#121928" d="M 243.5,244.5 C 271.688,242.996 289.855,255.663 298,282.5C 300.631,306.747 291.131,324.247 269.5,335C 241.904,343.448 221.404,334.948 208,309.5C 199.479,276.533 211.312,254.866 243.5,244.5 Z"/></g>
<g><path style="opacity:1" fill="#e2e2e3" d="M 248.5,254.5 C 262.425,253.731 267.925,260.065 265,273.5C 259.932,280.868 253.432,282.368 245.5,278C 238.072,269.011 239.072,261.178 248.5,254.5 Z"/></g>
</svg>
